<svg width="122" height="35" viewBox="0 0 122 35" fill="none" xmlns="http://www.w3.org/2000/svg">
<path d="M10.21 20.3975H4.77539V16.9697H10.21C11.0498 16.9697 11.7334 16.833 12.2607 16.5596C12.7881 16.2764 13.1738 15.8857 13.418 15.3877C13.6621 14.8896 13.7842 14.3281 13.7842 13.7031C13.7842 13.0684 13.6621 12.4775 13.418 11.9307C13.1738 11.3838 12.7881 10.9443 12.2607 10.6123C11.7334 10.2803 11.0498 10.1143 10.21 10.1143H6.29883V28H1.9043V6.67188H10.21C11.8799 6.67188 13.3105 6.97461 14.502 7.58008C15.7031 8.17578 16.6211 9.00098 17.2559 10.0557C17.8906 11.1104 18.208 12.3164 18.208 13.6738C18.208 15.0508 17.8906 16.2422 17.2559 17.248C16.6211 18.2539 15.7031 19.0303 14.502 19.5771C13.3105 20.124 11.8799 20.3975 10.21 20.3975ZM21.2402 6.67188H29.1943C30.8252 6.67188 32.2266 6.91602 33.3984 7.4043C34.5801 7.89258 35.4883 8.61523 36.123 9.57227C36.7578 10.5293 37.0752 11.7061 37.0752 13.1025C37.0752 14.2451 36.8799 15.2266 36.4893 16.0469C36.1084 16.8574 35.5664 17.5361 34.8633 18.083C34.1699 18.6201 33.3545 19.0498 32.417 19.3721L31.0254 20.1045H24.1113L24.082 16.6768H29.2236C29.9951 16.6768 30.6348 16.54 31.1426 16.2666C31.6504 15.9932 32.0312 15.6123 32.2852 15.124C32.5488 14.6357 32.6807 14.0693 32.6807 13.4248C32.6807 12.7412 32.5537 12.1504 32.2998 11.6523C32.0459 11.1543 31.6602 10.7734 31.1426 10.5098C30.625 10.2461 29.9756 10.1143 29.1943 10.1143H25.6348V28H21.2402V6.67188ZM33.1641 28L28.3008 18.4932L32.9443 18.4639L37.8662 27.7949V28H33.1641ZM57.9785 16.8379V17.8486C57.9785 19.4697 57.7588 20.9248 57.3193 22.2139C56.8799 23.5029 56.2598 24.6016 55.459 25.5098C54.6582 26.4082 53.7012 27.0967 52.5879 27.5752C51.4844 28.0537 50.2588 28.293 48.9111 28.293C47.5732 28.293 46.3477 28.0537 45.2344 27.5752C44.1309 27.0967 43.1738 26.4082 42.3633 25.5098C41.5527 24.6016 40.9229 23.5029 40.4736 22.2139C40.0342 20.9248 39.8145 19.4697 39.8145 17.8486V16.8379C39.8145 15.207 40.0342 13.752 40.4736 12.4727C40.9131 11.1836 41.5332 10.085 42.334 9.17676C43.1445 8.26855 44.1016 7.5752 45.2051 7.09668C46.3184 6.61816 47.5439 6.37891 48.8818 6.37891C50.2295 6.37891 51.4551 6.61816 52.5586 7.09668C53.6719 7.5752 54.6289 8.26855 55.4297 9.17676C56.2402 10.085 56.8652 11.1836 57.3047 12.4727C57.7539 13.752 57.9785 15.207 57.9785 16.8379ZM53.54 17.8486V16.8086C53.54 15.6758 53.4375 14.6797 53.2324 13.8203C53.0273 12.9609 52.7246 12.2383 52.3242 11.6523C51.9238 11.0664 51.4355 10.627 50.8594 10.334C50.2832 10.0312 49.624 9.87988 48.8818 9.87988C48.1396 9.87988 47.4805 10.0312 46.9043 10.334C46.3379 10.627 45.8545 11.0664 45.4541 11.6523C45.0635 12.2383 44.7656 12.9609 44.5605 13.8203C44.3555 14.6797 44.2529 15.6758 44.2529 16.8086V17.8486C44.2529 18.9717 44.3555 19.9678 44.5605 20.8369C44.7656 21.6963 45.0684 22.4238 45.4688 23.0195C45.8691 23.6055 46.3574 24.0498 46.9336 24.3525C47.5098 24.6553 48.1689 24.8066 48.9111 24.8066C49.6533 24.8066 50.3125 24.6553 50.8887 24.3525C51.4648 24.0498 51.9482 23.6055 52.3389 23.0195C52.7295 22.4238 53.0273 21.6963 53.2324 20.8369C53.4375 19.9678 53.54 18.9717 53.54 17.8486ZM66.2842 24.6162L70.5322 6.67188H72.9053L73.4473 9.66016L68.9209 28H66.3721L66.2842 24.6162ZM64.1016 6.67188L67.6172 24.6162L67.3242 28H64.4824L59.751 6.67188H64.1016ZM77.1826 24.543L80.6543 6.67188H85.0049L80.2881 28H77.4463L77.1826 24.543ZM74.2383 6.67188L78.5156 24.6895L78.3984 28H75.8496L71.2939 9.64551L71.8799 6.67188H74.2383ZM101.704 24.5723V28H90.3516V24.5723H101.704ZM91.7871 6.67188V28H87.3926V6.67188H91.7871ZM100.225 15.3584V18.6982H90.3516V15.3584H100.225ZM101.689 6.67188V10.1143H90.3516V6.67188H101.689ZM112.617 18.6396H107.139L107.109 15.6221H111.709C112.52 15.6221 113.184 15.5195 113.701 15.3145C114.219 15.0996 114.604 14.792 114.858 14.3916C115.122 13.9814 115.254 13.4834 115.254 12.8975C115.254 12.2334 115.127 11.6963 114.873 11.2861C114.629 10.876 114.243 10.5781 113.716 10.3926C113.198 10.207 112.529 10.1143 111.709 10.1143H108.662V28H104.268V6.67188H111.709C112.949 6.67188 114.058 6.78906 115.034 7.02344C116.021 7.25781 116.855 7.61426 117.539 8.09277C118.223 8.57129 118.745 9.17676 119.106 9.90918C119.468 10.6318 119.648 11.4912 119.648 12.4873C119.648 13.3662 119.448 14.1768 119.048 14.9189C118.657 15.6611 118.037 16.2666 117.188 16.7354C116.348 17.2041 115.249 17.4629 113.892 17.5117L112.617 18.6396ZM112.427 28H105.938L107.651 24.5723H112.427C113.198 24.5723 113.828 24.4502 114.316 24.2061C114.805 23.9521 115.166 23.6104 115.4 23.1807C115.635 22.751 115.752 22.2578 115.752 21.7012C115.752 21.0762 115.645 20.5342 115.43 20.0752C115.225 19.6162 114.893 19.2646 114.434 19.0205C113.975 18.7666 113.369 18.6396 112.617 18.6396H108.384L108.413 15.6221H113.687L114.697 16.8086C115.996 16.7891 117.041 17.0186 117.832 17.4971C118.633 17.9658 119.214 18.5762 119.575 19.3281C119.946 20.0801 120.132 20.8857 120.132 21.7451C120.132 23.1123 119.834 24.2646 119.238 25.2021C118.643 26.1299 117.769 26.8281 116.616 27.2969C115.474 27.7656 114.077 28 112.427 28Z" fill="black"/>
</svg>
